# xmcd CD database file
#
# Track frame offsets:
#	150
#	18317
#	44895
#	75737
#	89420
#	110077
#	148162
#	164075
#	187397
#	226335
#
# Disc length: 3198 seconds
#
# Revision: 0
# Processed by: cddbd v1.5PL3 Copyright (c) Steve Scherf et al.
# Submitted via: cdripper 1.0.7
#
DISCID=950c7c0a
DTITLE=Jimmy Ley - The Stalker
DYEAR=1996
DGENRE=Blues
TTITLE0=The Stalker
TTITLE1=Stomach Full of Misery
TTITLE2=Where Are You?
TTITLE3=Batten Down the Hatches
TTITLE4=Standing On the Fault Line
TTITLE5=Workin' Spot
TTITLE6=Blackout Blues
TTITLE7=Deborah
TTITLE8=Sun Goin' Down
TTITLE9=I'm A Blues Star
EXTD=YEAR: 1996
EXTT0=
EXTT1=
EXTT2=
EXTT3=
EXTT4=
EXTT5=
EXTT6=
EXTT7=
EXTT8=
EXTT9=
PLAYORDER=
